<svg width="158" height="175" viewBox="0 0 158 175" fill="none" xmlns="http://www.w3.org/2000/svg">
<rect y="8" width="158" height="158" rx="21" fill="#EBB30D"/>
<path d="M18.712 131.152C15.9813 131.152 13.9333 130.512 12.568 129.232C11.2027 127.867 10.52 126.245 10.52 124.368C10.52 122.491 11.2027 120.741 12.568 119.12L70.936 44.752C72.3867 42.96 73.9227 41.68 75.544 40.912C77.2507 40.144 79.2133 39.76 81.432 39.76H137.368C140.013 39.76 142.061 40.3147 143.512 41.424C144.963 42.448 145.688 43.984 145.688 46.032C145.688 48.9333 144.835 51.1947 143.128 52.816C141.507 54.4373 139.245 55.248 136.344 55.248H87.832L93.72 50.64L95.768 81.872L89.624 76.368H128.792C131.437 76.368 133.443 76.9227 134.808 78.032C136.259 79.1413 136.984 80.6773 136.984 82.64C136.984 85.5413 136.131 87.8453 134.424 89.552C132.803 91.1733 130.584 91.984 127.768 91.984H90.648L95.896 86.48L97.944 119.888L91.8 114.512H125.592C128.323 114.512 130.371 115.067 131.736 116.176C133.187 117.2 133.912 118.736 133.912 120.784C133.912 123.6 133.101 125.861 131.48 127.568C129.859 129.189 127.555 130 124.568 130H89.752C84.12 130 81.1333 127.227 80.792 121.68L79.896 104.528L85.272 110.416H36.12L44.184 105.168L28.44 126.16C27.16 127.867 25.752 129.147 24.216 130C22.68 130.768 20.8453 131.152 18.712 131.152ZM77.08 61.52L48.28 99.664L47.896 94.928H84.248L79.64 100.304L77.336 61.52H77.08Z" fill="#FFFFFE"/>
</svg>
